<svg id="圖層_1" data-name="圖層 1" xmlns="http://www.w3.org/2000/svg" viewBox="0 0 91.32 124.05"><title>logo</title><path d="M21.81,46.67c2-11,10-21.94,16.51-31.68,2.24-3.32,4.76-6.65,8.3-8.52s8.45-1.94,11.17,1c2,2.2,1.81,2.91,2.59,4.45,6.43,12.75,9,21,13.54,31.45a2.09,2.09,0,0,1-1.1,2.73l-.31.1c-16.7,4-34.83,6.74-50.7.47" transform="translate(-2.68 -3.68)"/><path d="M23.31,47.07C25.18,36.87,31.31,28,37,19.55c2.67-3.94,5.21-8.55,9.27-11.18,3.44-2.21,8.21-2.6,11,.84a24.5,24.5,0,0,1,2.31,4.57q1.77,3.54,3.39,7.14c1.84,4.09,3.52,8.25,5.18,12.42.82,2,1.64,4.11,2.48,6.15.41,1,.82,2,1.25,3,.27.63,1.08,1.73.29,2.22a7.74,7.74,0,0,1-1.84.45l-1.74.4c-1.32.3-2.63.59-3.95.86-2.65.54-5.31,1-8,1.41-11.53,1.7-23.52,1.66-34.5-2.62-1.8-.7-2.58,2.2-.8,2.9C32.16,52.31,44,52.51,55.29,51A164.19,164.19,0,0,0,72,47.85a4.36,4.36,0,0,0,3-1.74A3.64,3.64,0,0,0,75.35,43c-.76-2.27-1.88-4.47-2.77-6.69-3.69-9.18-7.42-18.33-11.8-27.2-2.13-4.32-6.71-6-11.28-5.19-5.08.93-8.73,5-11.57,9-3.62,5.19-7.22,10.48-10.42,15.94s-6,11.23-7.15,17.45c-.35,1.89,2.54,2.7,2.9.8Z" transform="translate(-2.68 -3.68)"/><path d="M9.87,48.67c-.51-.65.27-1.39,1-1.78a1.89,1.89,0,0,1,2.24.49,2.65,2.65,0,0,1,.48,2.29,1.56,1.56,0,0,1-.54.91,1.43,1.43,0,0,1-1.66-.12,7.45,7.45,0,0,1-1.52-1.79" transform="translate(-2.68 -3.68)"/><path d="M18.43,51.21c.84-.66,1.79.34,2.3,1.28a2.46,2.46,0,0,1-.64,2.9,3.41,3.41,0,0,1-3,.61,2,2,0,0,1-1.18-.69,1.85,1.85,0,0,1,.16-2.15,9.93,9.93,0,0,1,2.38-2" transform="translate(-2.68 -3.68)"/><path d="M84.12,45.47c.42,1.94-1.76,3.19-3.22,3.88a59.69,59.69,0,0,1-5.59,2.23,95.12,95.12,0,0,1-11.08,3.16A95.57,95.57,0,0,1,40.8,56.9a93.9,93.9,0,0,1-13.49-1.39c-1.41-.25-2,1.92-.6,2.17A97.2,97.2,0,0,0,78,53c3.45-1.32,9.35-3.27,8.35-8.12-.31-1.41-2.48-.81-2.17.6Z" transform="translate(-2.68 -3.68)"/><path d="M19.25,61.37c6.84,4.39,14.94,4.9,22.84,5a100.16,100.16,0,0,0,12.73-.27,85.16,85.16,0,0,0,12.56-2.42,116.69,116.69,0,0,0,13.23-4.43c1.33-.53.75-2.7-.6-2.16a102.49,102.49,0,0,1-23.23,6.58,77.66,77.66,0,0,1-12.38.56,113.87,113.87,0,0,1-11.54-.56,29.48,29.48,0,0,1-12.47-4.23C19.16,58.67,18,60.59,19.25,61.37Z" transform="translate(-2.68 -3.68)"/><path d="M19.67,87.14q-7.28.44-15.44.68a1.17,1.17,0,0,1-.94-.24,1.78,1.78,0,0,1-.29-1c0-1,.36-1.54,1.23-1.54H6.41a43.33,43.33,0,0,0,2.79-5.2,1.58,1.58,0,0,1,.76-.94,1.74,1.74,0,0,1,1.27,0c1.13.36,1.4,1.06.81,2.14-.92,1.66-1.74,3-2.35,3.87,1.65,0,4.23-.16,7.73-.3-.11-.13-.3-.31-.55-.55l-.52-.52c-.74-.66-.7-1.27.09-1.9a1.28,1.28,0,0,1,1.78,0,31,31,0,0,1,4.63,4.81,1.31,1.31,0,0,1,.24,1,1.85,1.85,0,0,1-.68.81,1.27,1.27,0,0,1-1.8.11,1.35,1.35,0,0,1-.31-.41C20.22,87.82,20.07,87.58,19.67,87.14ZM6.81,90H19a1.44,1.44,0,0,1,1.08.4,1.42,1.42,0,0,1,.43,1.09v6.21a1.44,1.44,0,0,1-.43,1.09,1.48,1.48,0,0,1-1.08.39H6.81a1.51,1.51,0,0,1-1.09-.39,1.47,1.47,0,0,1-.41-1.09V91.41a1.44,1.44,0,0,1,.41-1.08A1.5,1.5,0,0,1,6.81,90Zm1.85,6.55h9v-4h-9a.48.48,0,0,0-.56.56V96C8.1,96.36,8.28,96.53,8.66,96.53Z" transform="translate(-2.68 -3.68)"/><path d="M28.08,85.39a17.83,17.83,0,0,1,1.61,1,1.19,1.19,0,0,1,.51.76,1.41,1.41,0,0,1-.36.89,1.66,1.66,0,0,1-.88.66,1.32,1.32,0,0,1-1-.38,6.69,6.69,0,0,0-1.09-.73,1.09,1.09,0,0,1-.33-1.81,1.11,1.11,0,0,1,1.5-.4Zm-1.39,12c.93-2.27,1.55-3.9,1.9-4.93s.88-1.1,1.71-.58a1.19,1.19,0,0,1,.56,1.51c-.51,1.67-1.08,3.37-1.75,5.11-.34.88-.94,1.09-1.79.59a1.2,1.2,0,0,1-.69-1.55Zm1.63-15.17c-.32-.25-.67-.52-1.06-.79a1,1,0,0,1-.52-1.37,1,1,0,0,1,.3-.38,1.13,1.13,0,0,1,1.56-.33l0,0c.22.14.74.5,1.57,1.1a1.2,1.2,0,0,1,.46.76,1.27,1.27,0,0,1-.37.81,1.18,1.18,0,0,1-1.61.48A1.1,1.1,0,0,1,28.32,82.27Zm13,.06H36.7a.73.73,0,0,1-.55-.21.72.72,0,0,1-.21-.55h0a26.59,26.59,0,0,1-2.1,2.56h1c-.12-.35,0-.59.39-.75a.54.54,0,0,1,.73.21.36.36,0,0,1,0,.09,12.16,12.16,0,0,1,.5,1.69A.67.67,0,0,1,36,86c-.41.17-.62,0-.69-.34h0l-.72.06v3.61a.86.86,0,1,1-1.71,0V87.05a12.41,12.41,0,0,1-1.13,3h0a1.64,1.64,0,0,1-.92-2.11l.05-.11a1.51,1.51,0,0,1,1.78-1.17l.19,0h0v-.9h-1.3a.77.77,0,0,1-.86-.67V85a.73.73,0,0,1,.79-.85h.49a10.16,10.16,0,0,0,.65-.82,14.42,14.42,0,0,0-1.28-1.19.86.86,0,0,1-.24-.63,1.34,1.34,0,0,1,.22-.7c.19-.29.39-.38.6-.24h0c.18-.31.41-.76.69-1.37a.7.7,0,0,1,1.11-.38c.49.25.58.63.27,1.16l-.87,1.6a1,1,0,0,0,.23.23,1.19,1.19,0,0,1,.23.22c.28-.39.47-.68.59-.86a.71.71,0,0,1,1-.34l.15.1.64.35V81c0-.08,0-.12.1-.12h5a.3.3,0,0,1,.32.27v.11l.39-.56a.28.28,0,0,1,.39-.08.24.24,0,0,1,.09.08c.3-.54.53-1,.73-1.41A.76.76,0,0,1,44,79c.52.24.6.63.26,1.18a16.7,16.7,0,0,1-1,1.52,3.31,3.31,0,0,1,.49.5l.73-1.07c.24-.44.63-.53,1.14-.26s.59.67.2,1.16c-.66.82-1.28,1.53-1.84,2.16h1.28c-.22-.43-.08-.74.4-1a.59.59,0,0,1,.8.21l0,.11A11.79,11.79,0,0,1,47.1,85c.09.38-.1.68-.6.87s-.66.12-.71-.22h0l-.91.08v3.62a.75.75,0,0,1-.64.85H44a.77.77,0,0,1-.88-.64.55.55,0,0,1,0-.22V87.05a17.27,17.27,0,0,1-.53,1.73,1.09,1.09,0,0,1-.68.65,1.28,1.28,0,0,1-1-.15h0v.45a.28.28,0,0,1-.23.32H38.26a1.53,1.53,0,0,1-1.73-1.29,1.62,1.62,0,0,1,0-.44,1.53,1.53,0,0,1,1.27-1.76,1.42,1.42,0,0,1,.46,0h1.36a1.16,1.16,0,0,1,.92.34,1.17,1.17,0,0,1,.35.9v1.06c.18-.42.35-.85.49-1.28a1.28,1.28,0,0,1,.53-.81,1.32,1.32,0,0,1,1-.14h.27V85.8H42a.75.75,0,0,1-.86-.6,1,1,0,0,1,0-.17.7.7,0,0,1,.53-.84.53.53,0,0,1,.25,0h.21a6.25,6.25,0,0,1,.56-.69A7.9,7.9,0,0,0,41.34,82v.21S41.32,82.33,41.29,82.33ZM33,90.61H43.63a1.45,1.45,0,0,1,1.08.41,1.48,1.48,0,0,1,.43,1.09V93A1.43,1.43,0,0,1,44.71,94a1.45,1.45,0,0,1-1.08.41H35.05l-.2.72h9.76c1.1,0,1.48.78,1.15,2.35a4,4,0,0,1-1,2,3.62,3.62,0,0,1-2.12.59H40.33a1.41,1.41,0,0,1-1.51-1V99c-.16-.3-.17-.52,0-.66a1,1,0,0,1,.78-.17h2.27a1.73,1.73,0,0,0,.87-.15,1.38,1.38,0,0,0,.48-.59c.09-.26.11-.42,0-.51a.45.45,0,0,0-.35-.12H34.43a.72.72,0,0,1-.37.43,1.09,1.09,0,0,1-.59.1,1.9,1.9,0,0,1-1.11-.46.87.87,0,0,1-.17-1c.27-1,.43-1.6.46-1.81a1.49,1.49,0,0,1,.55-.92,1.66,1.66,0,0,1,1-.35h8c.25,0,.36-.13.36-.38v-.07a.23.23,0,0,0-.21-.26.06.06,0,0,0-.06,0H33c-.49,0-.74-.26-.74-.8a.67.67,0,0,1,.62-.7A.24.24,0,0,1,33,90.61Zm2-2.12a5.84,5.84,0,0,0-.27-1.17c-.11-.43,0-.69.52-.78a.58.58,0,0,1,.75.32.19.19,0,0,1,0,.1c.16.55.27,1,.34,1.28a.62.62,0,0,1-.51.74C35.39,89.1,35,89,35,88.49Zm2.21-5.57h3.07a.57.57,0,0,1,.64.48.38.38,0,0,1,0,.15c0,.4-.22.6-.64.6H37.18c-.42,0-.64-.2-.64-.6a.56.56,0,0,1,.49-.63Zm3.07,3H37.18c-.42,0-.64-.21-.64-.6a.57.57,0,0,1,.48-.64h3.23a.56.56,0,0,1,.64.47.49.49,0,0,1,0,.17C40.89,85.72,40.67,85.93,40.25,85.93ZM37.36,79H40a.57.57,0,0,1,.63.65c0,.44-.21.65-.63.65H37.36a.56.56,0,0,1-.66-.47.54.54,0,0,1,0-.18.57.57,0,0,1,.48-.65A.54.54,0,0,1,37.36,79Zm1.16,9.77H39c.14,0,.2,0,.2-.19v-.37a.4.4,0,0,0-.34-.45h-.31c-.33,0-.49.18-.49.52h0a.38.38,0,0,0,.23.48A.41.41,0,0,0,38.52,88.78Zm7-.51c-.17-.51-.27-.79-.3-.86a.61.61,0,0,1,.22-.84.49.49,0,0,1,.21-.08.65.65,0,0,1,.86.33l0,.08c.25.7.42,1.28.56,1.73a.6.6,0,0,1-.35.77.27.27,0,0,1-.12,0c-.5.18-.8,0-.94-.51A4.77,4.77,0,0,0,45.52,88.27Z" transform="translate(-2.68 -3.68)"/><path d="M52.78,79.64H69.06a1.09,1.09,0,0,1,1.28.88,1.34,1.34,0,0,1,0,.4,1.09,1.09,0,0,1-.88,1.27.9.9,0,0,1-.4,0H63.4c.07,0,.1,0,.09.09L63,83.74h4.12a1.44,1.44,0,0,1,1.53,1.35.49.49,0,0,1,0,.12v5.64a1.46,1.46,0,0,1-1.38,1.51h-4v5.12A3.59,3.59,0,0,1,63.08,99a1.53,1.53,0,0,1-.86.8,6.47,6.47,0,0,1-2.22.37c-1,0-1.53-.31-1.74-1s-.09-.85.18-1a2,2,0,0,1,1.27-.28h.5c.31,0,.45-.12.45-.36V92.36H57a1.42,1.42,0,0,1-1.49-1.51V85.21A1.38,1.38,0,0,1,57,83.74h3c.11-.75.18-1.28.2-1.6H54.52q-.54,0-.54.57v3.83a34.62,34.62,0,0,1-1.71,12.25,1.6,1.6,0,0,1-.75.9,1.44,1.44,0,0,1-1.12-.23,1.38,1.38,0,0,1-.64-1.84.8.8,0,0,1,.08-.16A31.54,31.54,0,0,0,51.3,86.54V81.18a1.44,1.44,0,0,1,.41-1.07A1.37,1.37,0,0,1,52.78,79.64Zm4.71,17.12A16.63,16.63,0,0,1,56,98.36a1.28,1.28,0,0,1-1.77.09c-.48-.37-.71-.72-.68-1s.28-.64.78-1a13.58,13.58,0,0,0,2-2.29,1.38,1.38,0,0,1,1.73-.7c1,.28,1.28.86.7,1.74A17.35,17.35,0,0,1,57.49,96.76Zm7.8-11H58.68a.49.49,0,0,0-.56.42.33.33,0,0,0,0,.14v.74h7.67V86.3a.5.5,0,0,0-.45-.55ZM65.85,89H58.18v.79a.49.49,0,0,0,.42.56h6.75a.5.5,0,0,0,.57-.42v-.14Zm1.91,9a23.39,23.39,0,0,0-2.32-2.66c-.67-.64-.6-1.21.21-1.74a1.27,1.27,0,0,1,1.57.12A29.6,29.6,0,0,1,70,96.53a1.14,1.14,0,0,1,.29.9,1.6,1.6,0,0,1-.7.71,1.51,1.51,0,0,1-1,.35A1.29,1.29,0,0,1,67.76,97.91Z" transform="translate(-2.68 -3.68)"/><path d="M92.63,99.46H74.83a1.18,1.18,0,0,1-1.28-1.07.74.74,0,0,1,0-.21,1.2,1.2,0,0,1,1-1.35h7.75V92.16h-4.9a1.18,1.18,0,0,1-1.28-1.06,1.41,1.41,0,0,1,0-.29,1.16,1.16,0,0,1,1-1.28,1.22,1.22,0,0,1,.27,0h4.9V85.46H77.62a22.37,22.37,0,0,1-1.28,2.22,1.48,1.48,0,0,1-.88.67A1.58,1.58,0,0,1,74.39,88a1.66,1.66,0,0,1-.79-1A1.56,1.56,0,0,1,74.06,86a20.55,20.55,0,0,0,2.66-5.62,1.28,1.28,0,0,1,1.35-1.21,1.58,1.58,0,0,1,.42.09,1.2,1.2,0,0,1,1.15,1.23,1.44,1.44,0,0,1-.14.53l-.64,1.81h3.51V80.05a1.43,1.43,0,0,1,1.43-1.42,1.41,1.41,0,0,1,1.41,1.42v2.73h6.4a1.18,1.18,0,0,1,1.33,1,.77.77,0,0,1,0,.26,1.19,1.19,0,0,1-1.08,1.29H85.21v4H90.7a1.17,1.17,0,0,1,1.28,1,1,1,0,0,1,0,.24A1.19,1.19,0,0,1,91,92H85.15v4.77h7.48a1.19,1.19,0,0,1,1.36,1,2.16,2.16,0,0,1,0,.36,1.18,1.18,0,0,1-1,1.32A1,1,0,0,1,92.63,99.46Z" transform="translate(-2.68 -3.68)"/><path d="M14.3,111.47h7.57c.83,0,1.28.39,1.28,1.2A1.08,1.08,0,0,1,22.3,114a1,1,0,0,1-.43,0h-5A21.41,21.41,0,0,0,22,117c1.15.43,1.38,1.1.68,2a1.35,1.35,0,0,1-1.78.38l-.77-.35v6.58a1.48,1.48,0,0,1-.4,1.08,1.58,1.58,0,0,1-1.09.41H7.51a1.54,1.54,0,0,1-1.08-.41A1.47,1.47,0,0,1,6,125.53V119l-1,.51a1.47,1.47,0,0,1-1.8-.42c-.72-.91-.49-1.56.7-2A19.06,19.06,0,0,0,9,113.91H4a1.09,1.09,0,0,1-1.28-.85,1.55,1.55,0,0,1,0-.43c0-.81.41-1.2,1.28-1.2h7.54v-1.59c-1.71.16-3.39.27-5.12.33a1.27,1.27,0,0,1-1.37-1c-.22-.88.17-1.28,1.18-1.39A76.09,76.09,0,0,0,18,106.52a1.19,1.19,0,0,1,.79,0,2,2,0,0,1,.66.56q1.24,1.42-.48,1.8-2.43.45-4.65.72Zm-7.47,7H19.38a23.3,23.3,0,0,1-5.12-3.94v2a1.26,1.26,0,0,1-1.13,1.4h-.26a1.28,1.28,0,0,1-1.39-1.16,1,1,0,0,1,0-.25v-2A19.62,19.62,0,0,1,6.83,118.5Zm1.92,3.32h8.58v-1.27H8.75Zm8.58,1.87H8.75v.72a.47.47,0,0,0,.4.54h7.62a.49.49,0,0,0,.56-.54Z" transform="translate(-2.68 -3.68)"/><path d="M29.47,126.43v-6.88a39.75,39.75,0,0,1-1.62,3.94c-.38.62-.69.93-1,.91s-.55-.38-.84-1.05a1.61,1.61,0,0,1,.15-1.77,22.67,22.67,0,0,0,2.43-5.18H27.33a1.11,1.11,0,0,1-1.27-.91,1.15,1.15,0,0,1,0-.37,1.08,1.08,0,0,1,.88-1.27.86.86,0,0,1,.39,0h2.19v-6.28a1.09,1.09,0,0,1,.85-1.28,1,1,0,0,1,.43,0,1.09,1.09,0,0,1,1.28.88,1.34,1.34,0,0,1,0,.4v6.3h2.06a1.12,1.12,0,0,1,1.28.92,1.09,1.09,0,0,1,0,.36,1.13,1.13,0,0,1-1,1.28H32v.16c.48.48,1.41,1.55,2.79,3.24a1.18,1.18,0,0,1,.27.74,1.93,1.93,0,0,1-.41.74c-.36.45-.66.67-.93.67s-.53-.27-.8-.76L32,119.55v6.83a1.09,1.09,0,0,1-.88,1.28,1.34,1.34,0,0,1-.4,0,1.11,1.11,0,0,1-1.21-1A1.13,1.13,0,0,1,29.47,126.43Zm-1.28-18a24.82,24.82,0,0,1,.78,3.62.93.93,0,0,1-.76,1.06h0c-.77.2-1.18,0-1.28-.74a24.54,24.54,0,0,0-.65-3.29.89.89,0,0,1,.39-1.19.9.9,0,0,1,.33-.09.84.84,0,0,1,1.12.41,1.42,1.42,0,0,1,.07.22Zm7.24.7c-.31,1-.7,2.19-1.2,3.57-.18.43-.54.58-1.1.42s-.82-.5-.65-1c.26-.94.55-2.11.81-3.5a1,1,0,0,1,1-.95,1,1,0,0,1,.38.08c.78.15,1,.62.78,1.39Zm6.65,10.23v-11.9a1.28,1.28,0,0,1,2.56,0v11.4l1-.2a1.29,1.29,0,0,1,1.5,1,1.3,1.3,0,0,1-1,1.51l-1.51.29v4.92a1.28,1.28,0,0,1-2.56,0V122l-5.12.94a1.15,1.15,0,0,1-1.47-.66,1,1,0,0,1-.07-.43,1.16,1.16,0,0,1,.79-1.44.84.84,0,0,1,.27,0ZM38.24,117l-1.67-1.28a1.19,1.19,0,1,1,1.2-2.06h0A16.24,16.24,0,0,1,40,115.19a1,1,0,0,1,.41.73,1.46,1.46,0,0,1-.29.82c-.55.83-1.18.92-1.88.25Zm.91-5.7a20.22,20.22,0,0,0-1.65-1.28,1,1,0,0,1-.39-1.38,1.84,1.84,0,0,1,.17-.22,1,1,0,0,1,1.27-.53.78.78,0,0,1,.2.11,25.56,25.56,0,0,1,2.14,1.57,1.2,1.2,0,0,1,.35.71,1.84,1.84,0,0,1-.31.75c-.56.81-1.18.9-1.82.22Z" transform="translate(-2.68 -3.68)"/><path d="M52.18,120.61v-6.47H50.76a1.28,1.28,0,0,1,0-2.56h1.37V107.8a1.28,1.28,0,1,1,2.56,0v3.73h1a1.28,1.28,0,0,1,0,2.56h-1v5.46l.36-.15.5-.21q1.25-.54,1.59.81a1.28,1.28,0,0,1-.73,1.56c-.35.18-2,1-4.84,2.32-.86.41-1.47.14-1.83-.8a1.28,1.28,0,0,1,.5-1.74,1.22,1.22,0,0,1,.24-.1Zm6.11-3.26A1.14,1.14,0,0,1,56.7,117a1.17,1.17,0,0,1-.16-.36,1.2,1.2,0,0,1,.46-1.62l.26-.11,1-.44v-4.77a1.28,1.28,0,0,1,2.56,0v3.64l1.89-.8v-5.12a1.28,1.28,0,1,1,2.56,0v4l1.79-.79.5-.32.3-.19a.42.42,0,0,1,.38,0l1.28.44a.42.42,0,0,1,.32.49.69.69,0,0,1-.05.13c0,4.49,0,7.18-.16,8.07a2,2,0,0,1-1.16,1.9,3.52,3.52,0,0,1-1.28.3,1.28,1.28,0,0,1-1.38-1.15,1,1,0,0,1,.08-.81.76.76,0,0,1,.71-.27h0a.45.45,0,0,0,.31-.1.73.73,0,0,0,.18-.4c0-.36.08-2.13.08-5.32l-2,.87v6.86a1.28,1.28,0,0,1-2.56,0v-5.76l-1.89.83v7.09a2,2,0,0,0,.27,1.28,1.92,1.92,0,0,0,1.28.28h4.41a1.28,1.28,0,0,0,1.19-.49,3.3,3.3,0,0,1,.67-1.53,1,1,0,0,1,1.19-.27c.66.27.89,1,.69,2.17a3.5,3.5,0,0,1-1.16,2,3.94,3.94,0,0,1-2.37.58H62.27a4.45,4.45,0,0,1-3.14-.83,4.67,4.67,0,0,1-.82-3.22Z" transform="translate(-2.68 -3.68)"/><path d="M75.46,107H92a1.42,1.42,0,0,1,1.49,1.32v17.11a1.38,1.38,0,0,1-1.27,1.48H75.46a1.48,1.48,0,0,1-1.08-.39,1.58,1.58,0,0,1-.41-1.09V108.5a1.54,1.54,0,0,1,.41-1.1A1.45,1.45,0,0,1,75.46,107Zm14.84,2.33H77a.47.47,0,0,0-.56.4.38.38,0,0,0,0,.15v14.24a.5.5,0,0,0,.42.57H90.3c.36,0,.54-.18.54-.57V109.8a.47.47,0,0,0-.46-.49Zm-.88,6.58H78a.66.66,0,0,1-.74-.57.54.54,0,0,1,0-.18.65.65,0,0,1,.55-.74h4.67v-.71H80.61a1.43,1.43,0,0,1-1.09-.4,1.46,1.46,0,0,1-.42-1.08v-.68a1.42,1.42,0,0,1,.42-1.07,1.47,1.47,0,0,1,1.09-.41H86.7a1.56,1.56,0,0,1,1.1.41,1.51,1.51,0,0,1,.41,1.07v.68a1.54,1.54,0,0,1-.41,1.08,1.5,1.5,0,0,1-1.1.4h-2v.71h4.68a.64.64,0,0,1,.74.55.61.61,0,0,1,0,.19.65.65,0,0,1-.63.69h-.11ZM87.52,124H79.84a1.54,1.54,0,0,1-1.1-.39,1.52,1.52,0,0,1-.41-1.09V118a1.58,1.58,0,0,1,.41-1.09,1.49,1.49,0,0,1,1.1-.42h7.68A1.42,1.42,0,0,1,89,118v4.43a1.39,1.39,0,0,1-1.49,1.48Zm-1.28-5.9H80.92a.49.49,0,0,0-.54.56v3.22a.49.49,0,0,0,.54.56h5.36c.35,0,.53-.19.53-.56v-3.29c0-.37-.18-.56-.53-.56Zm-.75-6.63H81.66a.4.4,0,0,0-.47.34.24.24,0,0,0,0,.12v0a.35.35,0,0,0,.4.38h3.84a.41.41,0,0,0,.45-.37v-.14a.34.34,0,0,0-.29-.37h-.06ZM84.4,121.8H82.84a1.34,1.34,0,0,1-1.51-1.61,1.27,1.27,0,0,1,1-1.51,1.14,1.14,0,0,1,.52,0h1.59a1.27,1.27,0,0,1,1.5,1,1.4,1.4,0,0,1,0,.5,1.34,1.34,0,0,1-1.11,1.54,1.7,1.7,0,0,1-.39,0Zm-.35-1.89H83a.3.3,0,0,0-.33.27.08.08,0,0,0,0,.07v.09c0,.21.09.31.29.31h1a.36.36,0,0,0,.39-.3v-.09h0c0-.31-.09-.42-.31-.42Z" transform="translate(-2.68 -3.68)"/></svg>