<?xml version="1.0" encoding="utf-8"?>
<!-- Generator: Adobe Illustrator 24.0.1, SVG Export Plug-In . SVG Version: 6.00 Build 0)  -->
<svg version="1.1" id="Capa_1" xmlns="http://www.w3.org/2000/svg" xmlns:xlink="http://www.w3.org/1999/xlink" x="0px" y="0px"
	 viewBox="0 0 314.2 286.6" style="enable-background:new 0 0 314.2 286.6;" xml:space="preserve">
<style type="text/css">
	.st0{fill:#5C5C5C;}
</style>
<path class="st0" d="M307.5,127.9c-6.9-4.6-16.2-2.7-20.8,4.2l-0.4,0.7C280.8,58.6,218.8,0,143.3,0C64.3,0,0,64.3,0,143.3
	s64.3,143.3,143.3,143.3c11,0,20-9,20-20c0-11-9-20-20-20c-57,0-103.3-46.3-103.3-103.3S86.3,40,143.3,40c52.8,0,96.5,39.8,102.6,91
	c-4.8-6-13.5-7.4-20-3.1c-6.9,4.6-8.8,13.9-4.2,20.8l29.7,44.5c3.5,5.3,9.2,8.4,15.3,8.4s11.7-3.1,15.3-8.4l29.7-44.5
	C316.2,141.8,314.4,132.5,307.5,127.9z"/>
</svg>
