<?xml version="1.0" encoding="utf-8"?>
<!-- Generator: Adobe Illustrator 24.0.1, SVG Export Plug-In . SVG Version: 6.00 Build 0)  -->
<svg version="1.1" id="圖層_1" xmlns="http://www.w3.org/2000/svg" xmlns:xlink="http://www.w3.org/1999/xlink" x="0px" y="0px"
	 viewBox="0 0 185 67" style="enable-background:new 0 0 185 67;" xml:space="preserve">
<g>
	<path d="M14.31,44.67c2-11,10-21.94,16.51-31.68c2.24-3.32,4.76-6.65,8.3-8.52s8.45-1.94,11.17,1c2,2.2,1.81,2.91,2.59,4.45
		c6.43,12.75,9,21,13.54,31.45c0.45,1.06-0.05,2.28-1.1,2.73c-0.1,0.04-0.2,0.08-0.31,0.1C48.31,48.2,30.18,50.94,14.31,44.67"/>
	<path d="M15.81,45.07c1.87-10.2,8-19.09,13.73-27.52c2.67-3.94,5.21-8.55,9.27-11.18c3.44-2.21,8.21-2.6,11,0.84
		c0.93,1.44,1.7,2.97,2.31,4.57c1.18,2.36,2.31,4.74,3.39,7.14c1.84,4.09,3.52,8.25,5.18,12.42c0.82,2,1.64,4.11,2.48,6.15
		c0.41,1,0.82,2,1.25,3c0.27,0.63,1.08,1.73,0.29,2.22c-0.59,0.23-1.21,0.38-1.84,0.45l-1.74,0.4c-1.32,0.3-2.63,0.59-3.95,0.86
		c-2.65,0.54-5.31,1-8,1.41c-11.53,1.7-23.52,1.66-34.5-2.62c-1.8-0.7-2.58,2.2-0.8,2.9c10.78,4.2,22.57,4.4,33.91,2.92
		c5.62-0.77,11.21-1.83,16.72-3.18c1.2-0.14,2.28-0.77,3-1.74c0.59-0.94,0.71-2.1,0.34-3.15c-0.76-2.27-1.88-4.47-2.77-6.69
		c-3.69-9.18-7.42-18.33-11.8-27.2c-2.13-4.32-6.71-6-11.28-5.19c-5.08,0.93-8.73,5-11.57,9c-3.62,5.19-7.22,10.48-10.42,15.94
		s-6,11.23-7.15,17.45c-0.35,1.89,2.54,2.7,2.9,0.8H15.81z"/>
	<path d="M2.37,46.67c-0.51-0.65,0.27-1.39,1-1.78c0.77-0.36,1.69-0.16,2.24,0.49c0.51,0.65,0.69,1.49,0.48,2.29
		c-0.07,0.36-0.26,0.68-0.54,0.91c-0.52,0.32-1.19,0.27-1.66-0.12C3.29,47.95,2.78,47.34,2.37,46.67"/>
	<path d="M10.93,49.21c0.84-0.66,1.79,0.34,2.3,1.28c0.46,1,0.2,2.19-0.64,2.9c-0.85,0.67-1.96,0.9-3,0.61
		c-0.46-0.08-0.88-0.33-1.18-0.69C8,52.63,8.06,51.77,8.57,51.16c0.68-0.79,1.49-1.46,2.38-2"/>
	<path d="M76.62,43.47c0.42,1.94-1.76,3.19-3.22,3.88c-1.82,0.84-3.69,1.58-5.59,2.23c-3.63,1.28-7.33,2.33-11.08,3.16
		c-7.69,1.68-15.56,2.41-23.43,2.16c-4.52-0.14-9.03-0.6-13.49-1.39c-1.41-0.25-2,1.92-0.6,2.17c17.19,3.08,34.9,1.46,51.25-4.69
		c3.45-1.32,9.35-3.27,8.35-8.12c-0.31-1.41-2.48-0.81-2.17,0.6H76.62z"/>
	<path d="M11.75,59.37c6.84,4.39,14.94,4.9,22.84,5c4.24,0.19,8.5,0.09,12.73-0.27c4.24-0.49,8.44-1.29,12.56-2.42
		c4.49-1.21,8.91-2.69,13.23-4.43c1.33-0.53,0.75-2.7-0.6-2.16c-7.46,3.11-15.25,5.31-23.23,6.58c-4.11,0.52-8.25,0.7-12.38,0.56
		c-3.85,0.01-7.71-0.18-11.54-0.56c-4.42-0.45-8.69-1.89-12.47-4.23C11.66,56.67,10.53,58.59,11.75,59.37z"/>
</g>
<g>
	<path d="M106.17,17.14c-4.85,0.29-10,0.52-15.45,0.68c-0.33,0.06-0.67-0.03-0.93-0.24c-0.2-0.3-0.3-0.66-0.29-1.02
		c-0.05-1.02,0.36-1.53,1.23-1.53h2.19c1.05-1.67,1.98-3.41,2.79-5.2c0.12-0.4,0.39-0.73,0.75-0.93c0.41-0.16,0.87-0.16,1.28,0
		c1.13,0.36,1.39,1.06,0.81,2.14c-0.92,1.66-1.74,2.95-2.35,3.87c1.65,0,4.23-0.17,7.74-0.31c-0.12-0.13-0.31-0.31-0.55-0.55
		l-0.52-0.51c-0.74-0.66-0.7-1.28,0.09-1.91c0.5-0.48,1.28-0.48,1.78,0c1.71,1.43,3.26,3.04,4.63,4.81
		c0.21,0.27,0.29,0.62,0.24,0.96c-0.14,0.33-0.38,0.62-0.68,0.82c-0.47,0.53-1.28,0.57-1.81,0.1c-0.13-0.11-0.23-0.25-0.3-0.41
		C106.72,17.82,106.57,17.58,106.17,17.14z M93.31,19.98h12.19c0.4-0.02,0.79,0.12,1.09,0.4c0.29,0.29,0.44,0.68,0.42,1.09v6.22
		c0.02,0.41-0.13,0.8-0.42,1.09c-0.29,0.27-0.69,0.42-1.09,0.4H93.31c-0.4,0.02-0.79-0.12-1.09-0.4c-0.29-0.29-0.43-0.68-0.41-1.09
		v-6.27c-0.02-0.4,0.12-0.8,0.41-1.09C92.52,20.07,92.92,19.95,93.31,19.98z M95.16,26.53h8.95v-3.96h-8.95
		c-0.26-0.05-0.52,0.13-0.56,0.39c-0.01,0.06-0.01,0.11,0,0.17v2.88C94.6,26.36,94.78,26.53,95.16,26.53z"/>
	<path d="M114.58,15.39c0.55,0.3,1.09,0.63,1.61,0.98c0.27,0.18,0.45,0.45,0.51,0.77c-0.01,0.33-0.14,0.64-0.36,0.88
		c-0.21,0.32-0.52,0.55-0.88,0.66c-0.37,0.02-0.74-0.12-1-0.38c-0.34-0.28-0.7-0.52-1.09-0.73c-0.55-0.21-0.83-0.83-0.62-1.39
		c0.06-0.16,0.16-0.3,0.29-0.42c0.3-0.53,0.98-0.71,1.5-0.4C114.55,15.38,114.57,15.38,114.58,15.39z M113.19,27.44
		c0.92-2.26,1.55-3.9,1.89-4.92s0.88-1.1,1.71-0.59c0.55,0.28,0.79,0.94,0.56,1.51c-0.51,1.68-1.09,3.38-1.75,5.12
		c-0.35,0.88-0.95,1.09-1.79,0.59c-0.62-0.24-0.93-0.93-0.7-1.55C113.15,27.54,113.17,27.49,113.19,27.44z M114.82,12.27
		c-0.32-0.26-0.66-0.52-1.06-0.79c-0.52-0.24-0.75-0.85-0.51-1.37c0.07-0.15,0.17-0.28,0.3-0.38c0.34-0.52,1.04-0.66,1.56-0.32
		c0.01,0.01,0.03,0.02,0.04,0.03c0.22,0.14,0.74,0.5,1.57,1.1c0.24,0.18,0.41,0.45,0.46,0.75c-0.03,0.31-0.16,0.6-0.37,0.82
		c-0.31,0.58-1.03,0.79-1.61,0.48C115.05,12.51,114.92,12.4,114.82,12.27z M127.79,12.33h-4.59c-0.2,0-0.4-0.07-0.55-0.22
		c-0.14-0.15-0.22-0.35-0.2-0.55l0,0c-0.78,1.05-1.48,1.92-2.1,2.56h0.98l0,0c-0.12-0.35,0-0.59,0.4-0.74
		c0.26-0.14,0.59-0.05,0.73,0.21c0.01,0.03,0.03,0.05,0.04,0.08c0.21,0.55,0.37,1.11,0.5,1.69c0,0.28-0.12,0.51-0.52,0.68
		c-0.41,0.17-0.61,0-0.69-0.35l0,0l-0.72,0.06v3.61c0,0.47-0.38,0.86-0.86,0.86c-0.47,0-0.86-0.38-0.86-0.86v-2.31
		c-0.24,1.03-0.62,2.01-1.13,2.94l0,0c-0.83-0.33-1.24-1.27-0.92-2.11c0.01-0.04,0.03-0.07,0.05-0.11c0.17-0.82,0.96-1.34,1.78-1.18
		c0.06,0.01,0.13,0.03,0.19,0.05l0,0v-0.9h-0.65h-0.65c-0.42,0.05-0.8-0.25-0.85-0.67c0-0.03-0.01-0.06-0.01-0.09
		c0-0.54,0.2-0.82,0.79-0.86h0.49c0.23-0.26,0.45-0.53,0.65-0.82c-0.4-0.42-0.83-0.82-1.28-1.19c-0.16-0.17-0.25-0.39-0.24-0.63
		c0.01-0.25,0.09-0.49,0.22-0.7c0.19-0.29,0.4-0.38,0.6-0.24l0,0c0.18-0.31,0.41-0.75,0.69-1.37c0.11-0.38,0.5-0.6,0.88-0.5
		c0.08,0.02,0.16,0.06,0.23,0.11c0.49,0.26,0.58,0.64,0.27,1.16l-0.87,1.6c0.06,0.09,0.14,0.17,0.23,0.23
		c0.09,0.06,0.16,0.14,0.23,0.22c0.28-0.38,0.47-0.68,0.59-0.86c0.17-0.36,0.6-0.51,0.96-0.33c0.05,0.02,0.1,0.06,0.14,0.09
		l0.64,0.36v-0.27c0-0.08,0-0.12,0.1-0.12h5.04c0.16-0.01,0.3,0.1,0.32,0.27c0,0.02,0,0.04,0,0.05v0.06l0.4-0.56
		c0.08-0.13,0.26-0.17,0.39-0.08c0.03,0.02,0.06,0.05,0.08,0.08c0.31-0.54,0.54-1.01,0.73-1.41s0.58-0.59,1.1-0.35
		c0.52,0.24,0.6,0.63,0.27,1.18c-0.33,0.55-0.66,1.06-1.01,1.52c0.18,0.15,0.34,0.32,0.49,0.5l0.73-1.06
		c0.24-0.45,0.63-0.54,1.14-0.27c0.51,0.27,0.59,0.68,0.2,1.16c-0.66,0.82-1.28,1.53-1.84,2.16h1.28l0,0l0,0
		c-0.22-0.43-0.08-0.74,0.4-0.95c0.28-0.17,0.64-0.07,0.81,0.21c0.02,0.04,0.04,0.07,0.05,0.11c0.22,0.49,0.41,0.99,0.56,1.5
		c0.09,0.38-0.1,0.68-0.6,0.87c-0.5,0.19-0.66,0.12-0.72-0.22l0,0l-0.91,0.08v3.62c0.06,0.41-0.23,0.8-0.64,0.86
		c-0.07,0.01-0.14,0.01-0.21,0c-0.42,0.07-0.81-0.22-0.88-0.64c-0.01-0.07-0.01-0.15,0-0.22v-2.31c-0.15,0.58-0.33,1.16-0.54,1.73
		c-0.11,0.31-0.36,0.55-0.68,0.65c-0.34,0.08-0.69,0.03-0.98-0.15l0,0l0,0v0.45c0.02,0.15-0.08,0.3-0.24,0.32c-0.03,0-0.06,0-0.08,0
		h-2.38c-0.83,0.12-1.6-0.45-1.73-1.29c-0.02-0.15-0.02-0.3,0-0.44c-0.14-0.84,0.43-1.62,1.27-1.76c0.15-0.02,0.3-0.03,0.46-0.01
		h1.37c0.34-0.02,0.68,0.1,0.92,0.35c0.24,0.24,0.36,0.56,0.35,0.9v1.06c0.18-0.42,0.35-0.84,0.49-1.28
		c0.07-0.33,0.26-0.62,0.54-0.81c0.29-0.17,0.64-0.22,0.97-0.14h0.27V15.8h-1.15c-0.4,0.07-0.79-0.2-0.86-0.6
		c-0.01-0.05-0.01-0.11-0.01-0.17c-0.09-0.38,0.15-0.76,0.53-0.84c0.08-0.02,0.17-0.02,0.26-0.01h0.2c0.17-0.24,0.36-0.47,0.56-0.69
		c-0.38-0.55-0.83-1.05-1.34-1.48v0.2C127.84,12.21,127.82,12.33,127.79,12.33z M119.47,20.61h10.65c0.4-0.02,0.8,0.13,1.09,0.41
		c0.28,0.29,0.44,0.68,0.42,1.09v0.84c0.02,0.4-0.14,0.79-0.42,1.07c-0.29,0.28-0.68,0.43-1.09,0.41h-8.58l-0.19,0.72h9.76
		c1.1,0,1.48,0.78,1.15,2.35c-0.15,0.75-0.52,1.45-1.05,2.01c-0.63,0.41-1.37,0.62-2.12,0.59h-2.26c-0.68,0.08-1.32-0.35-1.51-1.01
		c0-0.02,0-0.04,0-0.06c-0.15-0.31-0.17-0.52,0-0.66c0.22-0.17,0.51-0.23,0.78-0.17c0.97,0,1.73,0,2.28,0
		c0.3,0.02,0.6-0.03,0.87-0.15c0.21-0.15,0.37-0.35,0.47-0.59c0.09-0.26,0.12-0.42,0-0.51c-0.12-0.09-0.17-0.12-0.35-0.12h-8.44l0,0
		c-0.06,0.19-0.19,0.34-0.37,0.42c-0.18,0.09-0.39,0.13-0.59,0.1c-0.41-0.03-0.8-0.19-1.11-0.46c-0.26-0.26-0.33-0.65-0.17-0.98
		c0.27-0.98,0.42-1.6,0.46-1.82c0.06-0.36,0.26-0.69,0.55-0.92c0.3-0.23,0.67-0.35,1.05-0.35h8.03c0.24,0,0.36-0.13,0.36-0.38v-0.06
		c0.01-0.13-0.08-0.25-0.21-0.27c-0.02,0-0.04,0-0.05,0h-9.4c-0.5,0-0.74-0.26-0.74-0.79c-0.02-0.37,0.25-0.68,0.62-0.71
		C119.39,20.6,119.43,20.6,119.47,20.61z M121.47,18.49c-0.05-0.4-0.14-0.79-0.27-1.16c-0.12-0.43,0-0.69,0.52-0.78
		c0.29-0.12,0.63,0.02,0.75,0.32c0.01,0.03,0.02,0.07,0.03,0.1c0.15,0.55,0.27,0.98,0.33,1.28c0.06,0.29-0.08,0.63-0.51,0.74
		S121.53,18.96,121.47,18.49z M123.68,12.92h3.07c0.31-0.04,0.59,0.17,0.64,0.48c0.01,0.05,0.01,0.1,0,0.15c0,0.4-0.22,0.6-0.64,0.6
		h-3.07c-0.42,0-0.64-0.2-0.64-0.6c-0.04-0.31,0.18-0.59,0.49-0.63C123.58,12.92,123.63,12.92,123.68,12.92z M126.75,15.93h-3.07
		c-0.42,0-0.64-0.2-0.64-0.6c-0.05-0.31,0.17-0.59,0.47-0.64c0.05-0.01,0.11-0.01,0.17,0h3.07c0.31-0.05,0.59,0.17,0.64,0.47
		c0.01,0.05,0.01,0.11,0,0.17C127.39,15.72,127.17,15.93,126.75,15.93z M123.86,9.01h2.67c0.42,0,0.63,0.22,0.63,0.65
		s-0.2,0.65-0.63,0.65h-2.67c-0.31,0.05-0.61-0.16-0.66-0.47c-0.01-0.06-0.01-0.12,0-0.18c-0.05-0.31,0.17-0.61,0.48-0.65
		C123.74,9,123.8,9,123.86,9.01z M125.02,18.78h0.51c0.14,0,0.2,0,0.2-0.19v-0.37c0.03-0.22-0.12-0.42-0.34-0.45
		c-0.04-0.01-0.07-0.01-0.11,0h-0.2c-0.33,0-0.49,0.18-0.49,0.52l0,0c-0.07,0.19,0.03,0.4,0.23,0.47
		C124.89,18.79,124.96,18.79,125.02,18.78z M132.02,18.27c-0.17-0.51-0.27-0.79-0.29-0.86c-0.17-0.29-0.08-0.67,0.21-0.84
		c0.07-0.04,0.14-0.07,0.21-0.08c0.33-0.15,0.71,0,0.86,0.32c0.01,0.03,0.02,0.06,0.03,0.09c0.24,0.7,0.42,1.28,0.56,1.73
		c0.12,0.31-0.04,0.66-0.35,0.77c-0.04,0.01-0.08,0.03-0.12,0.03c-0.5,0.18-0.81,0-0.95-0.51C132.15,18.7,132.09,18.48,132.02,18.27
		z"/>
	<path d="M139.28,9.64h16.28c0.6-0.11,1.17,0.29,1.28,0.89c0.02,0.13,0.02,0.26,0,0.39c0.11,0.6-0.29,1.17-0.89,1.28
		c-0.13,0.02-0.26,0.02-0.39,0h-5.88h0.22c0.08,0,0.1,0,0.09,0.09l-0.47,1.46h4.12c0.8-0.05,1.48,0.56,1.53,1.35
		c0,0.04,0,0.08,0,0.12v5.64c0.04,0.8-0.58,1.47-1.38,1.51c-0.04,0-0.09,0-0.13,0h-3.84v5.12c0.02,0.51-0.06,1.02-0.24,1.5
		c-0.17,0.37-0.48,0.65-0.86,0.79c-0.71,0.25-1.47,0.38-2.23,0.37c-0.95,0-1.52-0.31-1.74-1s-0.09-0.84,0.18-1.05
		c0.38-0.23,0.83-0.33,1.28-0.28h0.5c0.31,0,0.45-0.12,0.45-0.36v-5.09h-3.7c-0.4,0.02-0.8-0.14-1.09-0.42
		c-0.28-0.29-0.43-0.68-0.41-1.09v-5.64c-0.02-0.4,0.13-0.8,0.41-1.09c0.3-0.27,0.69-0.41,1.09-0.38h3.04
		c0.12-0.75,0.18-1.28,0.2-1.6h-5.69c-0.36,0-0.54,0.19-0.54,0.56v3.84c0.16,4.15-0.42,8.3-1.71,12.25c-0.13,0.38-0.4,0.7-0.75,0.9
		c-0.39,0.08-0.79,0-1.11-0.23c-0.69-0.33-0.98-1.15-0.65-1.84c0.03-0.05,0.05-0.1,0.09-0.15c1.12-3.53,1.61-7.22,1.46-10.92v-5.36
		c-0.02-0.4,0.13-0.79,0.41-1.07C138.48,9.8,138.87,9.63,139.28,9.64z M143.99,26.76c-0.48,0.57-0.99,1.1-1.53,1.6
		c-0.47,0.5-1.26,0.54-1.78,0.09c-0.47-0.37-0.7-0.72-0.68-1.02c0.03-0.31,0.28-0.64,0.78-1.02c0.75-0.69,1.42-1.46,1.99-2.29
		c0.3-0.65,1.06-0.96,1.73-0.7c1.01,0.28,1.28,0.86,0.7,1.74C144.83,25.71,144.42,26.25,143.99,26.76z M151.79,15.75h-6.61
		c-0.27-0.04-0.52,0.15-0.56,0.43c-0.01,0.05-0.01,0.09,0,0.14v0.74h7.67V16.3c0.03-0.27-0.17-0.52-0.44-0.55
		C151.83,15.75,151.81,15.75,151.79,15.75z M152.35,18.96h-7.67v0.79c-0.04,0.27,0.15,0.52,0.43,0.56c0.05,0.01,0.09,0.01,0.14,0
		h6.61c0.27,0.04,0.52-0.15,0.56-0.43c0.01-0.05,0.01-0.09,0-0.14L152.35,18.96z M154.26,27.91c-0.7-0.94-1.48-1.83-2.31-2.66
		c-0.68-0.64-0.6-1.21,0.2-1.74c0.49-0.33,1.14-0.28,1.57,0.12c1,0.91,1.94,1.88,2.81,2.9c0.22,0.24,0.32,0.57,0.28,0.9
		c-0.15,0.31-0.39,0.56-0.69,0.72c-0.29,0.24-0.65,0.36-1.02,0.35C154.75,28.42,154.45,28.21,154.26,27.91z"/>
	<path d="M179.13,29.46h-17.8c-0.65,0.06-1.22-0.42-1.28-1.06c-0.01-0.07-0.01-0.14,0-0.21c-0.09-0.65,0.36-1.25,1.01-1.35
		c0.09-0.01,0.18-0.02,0.27-0.01h7.48v-4.67h-4.9c-0.65,0.06-1.22-0.41-1.29-1.06c-0.01-0.1-0.01-0.19,0.01-0.29
		c-0.08-0.63,0.38-1.2,1.01-1.28c0.09-0.01,0.18-0.01,0.27,0h4.9v-4.08h-4.69c-0.38,0.77-0.81,1.51-1.28,2.23
		c-0.2,0.33-0.51,0.57-0.88,0.66c-0.38,0.03-0.76-0.08-1.06-0.32c-0.38-0.2-0.66-0.54-0.79-0.95c-0.01-0.42,0.15-0.83,0.46-1.13
		c1.17-1.73,2.06-3.63,2.66-5.63c0.04-0.71,0.64-1.25,1.35-1.21c0.14,0.01,0.29,0.04,0.42,0.09c0.66,0.02,1.17,0.57,1.15,1.23
		c-0.01,0.18-0.05,0.36-0.14,0.53l-0.64,1.82h3.52v-2.74c0-0.78,0.64-1.42,1.42-1.42c0.78,0,1.42,0.64,1.42,1.42v2.74h6.39
		c0.65-0.09,1.25,0.37,1.34,1.02c0.01,0.09,0.01,0.17,0.01,0.26c0.06,0.65-0.43,1.23-1.09,1.29c-0.09,0.01-0.17,0.01-0.26-0.01
		h-6.39v4.05h5.49c0.64-0.07,1.21,0.4,1.28,1.04c0.01,0.08,0.01,0.16,0,0.24c0.09,0.65-0.37,1.25-1.02,1.34
		c-0.09,0.01-0.17,0.01-0.26,0.01h-5.55v4.77h7.48c0.65-0.1,1.26,0.35,1.36,1c0.02,0.12,0.02,0.24,0,0.36
		c0.09,0.64-0.37,1.24-1.01,1.32C179.36,29.48,179.25,29.48,179.13,29.46z"/>
	<path d="M100.8,41.47h7.57c0.83,0,1.28,0.4,1.28,1.2c0.12,0.59-0.26,1.16-0.85,1.28c-0.14,0.03-0.29,0.03-0.43,0h-4.99
		c1.56,1.24,3.28,2.26,5.12,3.03c1.15,0.43,1.38,1.1,0.68,1.98c-0.41,0.57-1.17,0.73-1.78,0.38l-0.77-0.36v6.59
		c0.02,0.4-0.13,0.79-0.41,1.07c-0.29,0.28-0.68,0.42-1.09,0.41H94.01c-0.4,0.01-0.79-0.13-1.09-0.41c-0.29-0.29-0.45-0.7-0.42-1.11
		v-6.56l-1.01,0.51c-0.63,0.3-1.37,0.12-1.8-0.42c-0.72-0.91-0.49-1.56,0.7-1.98c1.86-0.78,3.59-1.85,5.12-3.17h-5.03
		c-0.59,0.12-1.16-0.26-1.28-0.85c-0.03-0.14-0.03-0.29,0-0.43c0-0.81,0.41-1.2,1.28-1.2h7.53v-1.59c-1.7,0.15-3.39,0.27-5.12,0.33
		c-0.64,0.06-1.22-0.36-1.37-0.98c-0.22-0.88,0.17-1.28,1.18-1.39c3.94-0.12,7.87-0.54,11.75-1.28c0.26-0.08,0.54-0.08,0.79,0
		c0.26,0.14,0.48,0.33,0.65,0.56c0.83,0.95,0.68,1.55-0.47,1.8c-1.62,0.29-3.17,0.54-4.65,0.72L100.8,41.47z M93.33,48.5h12.55
		c-1.88-1.07-3.6-2.39-5.12-3.94v2.01c0.07,0.7-0.44,1.33-1.14,1.41c-0.09,0.01-0.17,0.01-0.26,0c-0.7,0.07-1.33-0.45-1.4-1.15
		c-0.01-0.09-0.01-0.17,0-0.26v-2.03C96.65,46.09,95.08,47.43,93.33,48.5z M95.25,51.82h8.58v-1.28h-8.58V51.82z M103.83,53.69
		h-8.58v0.72c-0.04,0.26,0.14,0.5,0.4,0.54c0.05,0.01,0.09,0.01,0.14,0h7.48c0.37,0,0.56-0.18,0.56-0.54V53.69z"/>
	<path d="M115.97,56.43v-6.88c-0.46,1.34-1.01,2.66-1.62,3.94c-0.37,0.63-0.69,0.93-0.97,0.91c-0.28-0.03-0.55-0.37-0.84-1.05
		c-0.14-0.29-0.21-0.6-0.19-0.92c0.04-0.31,0.16-0.6,0.35-0.84c1.02-1.62,1.84-3.36,2.43-5.18h-1.28c-0.61,0.1-1.18-0.31-1.28-0.92
		c-0.02-0.12-0.02-0.24,0-0.36c-0.11-0.6,0.29-1.17,0.89-1.28c0.13-0.02,0.26-0.02,0.39,0h2.19v-6.28
		c-0.12-0.59,0.26-1.16,0.85-1.28c0.14-0.03,0.29-0.03,0.43,0c0.6-0.11,1.17,0.29,1.28,0.89c0.02,0.13,0.02,0.26,0,0.39v6.3h2.06
		c0.61-0.1,1.18,0.31,1.28,0.92c0.02,0.12,0.02,0.24,0,0.36c0.09,0.61-0.33,1.19-0.95,1.28c-0.11,0.02-0.22,0.02-0.33,0h-2.17v0.17
		c0.47,0.47,1.41,1.55,2.79,3.24c0.17,0.21,0.27,0.47,0.27,0.74c-0.08,0.27-0.22,0.53-0.41,0.74c-0.36,0.45-0.66,0.66-0.93,0.66
		c-0.27,0-0.52-0.27-0.79-0.75l-0.92-1.68v6.83c0.11,0.6-0.29,1.17-0.89,1.28c-0.13,0.02-0.26,0.02-0.39,0
		c-0.6,0.07-1.15-0.37-1.22-0.97C115.96,56.6,115.96,56.51,115.97,56.43z M114.69,38.45c0.34,1.19,0.6,2.4,0.78,3.62
		c0.08,0.5-0.26,0.98-0.76,1.06c-0.01,0-0.01,0-0.02,0c-0.77,0.2-1.18,0-1.28-0.74c-0.15-1.11-0.36-2.21-0.65-3.29
		c-0.22-0.43-0.05-0.97,0.39-1.19c0.1-0.05,0.21-0.08,0.33-0.09c0.42-0.2,0.92-0.01,1.12,0.41c0.03,0.07,0.06,0.14,0.07,0.22H114.69
		z M121.93,39.15c-0.31,1-0.7,2.19-1.2,3.57c-0.18,0.43-0.54,0.58-1.1,0.42c-0.56-0.15-0.82-0.5-0.65-1.01
		c0.27-0.95,0.55-2.11,0.82-3.5c0.01-0.53,0.44-0.95,0.97-0.95c0.13,0,0.26,0.03,0.37,0.08c0.78,0.15,0.98,0.63,0.78,1.39H121.93z
		 M128.58,49.38V37.48c0-0.71,0.57-1.28,1.28-1.28s1.28,0.57,1.28,1.28v11.41l1.05-0.2c0.71-0.13,1.38,0.34,1.51,1.05
		c0.13,0.71-0.34,1.38-1.05,1.51l-1.51,0.29v4.92c0,0.71-0.57,1.28-1.28,1.28s-1.28-0.57-1.28-1.28v-4.5l-5.12,0.93
		c-0.59,0.23-1.25-0.07-1.47-0.65c-0.05-0.14-0.08-0.29-0.08-0.43c-0.18-0.62,0.18-1.26,0.8-1.44c0.09-0.02,0.17-0.04,0.26-0.04
		L128.58,49.38z M124.74,47.04l-1.68-1.28c-0.57-0.33-0.76-1.06-0.43-1.63c0.33-0.57,1.06-0.76,1.63-0.43l0,0
		c0.77,0.43,1.5,0.93,2.19,1.48c0.24,0.17,0.39,0.44,0.41,0.73c0,0.3-0.1,0.58-0.28,0.82c-0.55,0.84-1.18,0.92-1.88,0.26
		L124.74,47.04z M125.65,41.34c-0.53-0.46-1.08-0.88-1.65-1.28c-0.49-0.27-0.66-0.89-0.39-1.38c0.05-0.08,0.1-0.16,0.17-0.22
		c0.2-0.5,0.77-0.74,1.27-0.54c0.07,0.03,0.14,0.07,0.2,0.11c0.74,0.49,1.45,1.01,2.14,1.57c0.19,0.19,0.32,0.44,0.35,0.7
		c-0.04,0.27-0.15,0.53-0.31,0.75c-0.56,0.81-1.18,0.9-1.82,0.22L125.65,41.34z"/>
	<path d="M138.68,50.61v-6.47h-1.42c-0.71,0-1.28-0.57-1.28-1.28c0-0.71,0.57-1.28,1.28-1.28h1.37V37.8c0-0.71,0.57-1.28,1.28-1.28
		s1.28,0.57,1.28,1.28v3.73h1.01c0.71,0,1.28,0.57,1.28,1.28s-0.57,1.28-1.28,1.28h-1.01v5.46l0.36-0.15l0.5-0.2
		c0.83-0.36,1.37-0.09,1.6,0.81c0.2,0.63-0.12,1.31-0.73,1.56c-0.36,0.18-1.97,0.96-4.85,2.33c-0.86,0.41-1.47,0.14-1.83-0.81
		c-0.34-0.62-0.12-1.4,0.5-1.74c0.08-0.04,0.16-0.08,0.24-0.1L138.68,50.61z M144.79,47.35c-0.53,0.35-1.24,0.21-1.6-0.32
		c-0.07-0.11-0.12-0.23-0.16-0.35c-0.32-0.57-0.12-1.3,0.46-1.62c0.08-0.05,0.17-0.08,0.26-0.11l1.04-0.45v-4.77
		c0-0.71,0.57-1.28,1.28-1.28s1.28,0.57,1.28,1.28v3.64l1.89-0.81v-5.12c0-0.71,0.57-1.28,1.28-1.28c0.71,0,1.28,0.57,1.28,1.28
		v3.99l1.79-0.79l0.5-0.32l0.29-0.19c0.12-0.06,0.26-0.06,0.38,0l1.28,0.45c0.22,0.04,0.36,0.26,0.32,0.48
		c-0.01,0.05-0.03,0.09-0.05,0.13c0,4.49,0,7.19-0.15,8.07c0.04,0.81-0.42,1.57-1.16,1.91c-0.4,0.18-0.84,0.28-1.28,0.29
		c-0.7,0.06-1.31-0.45-1.38-1.15c-0.09-0.27-0.06-0.56,0.08-0.81c0.17-0.21,0.45-0.31,0.72-0.27l0,0c0.11,0,0.22-0.03,0.31-0.1
		c0.1-0.11,0.16-0.25,0.18-0.4c0-0.36,0.08-2.14,0.08-5.32l-1.96,0.87v6.85c0,0.71-0.57,1.28-1.28,1.28s-1.28-0.57-1.28-1.28v-5.75
		l-1.89,0.83v7.08c-0.05,0.44,0.04,0.89,0.27,1.28c0.38,0.24,0.83,0.34,1.28,0.28h4.41c0.45,0.06,0.91-0.12,1.19-0.49
		c0.09-0.56,0.32-1.09,0.68-1.53c0.28-0.37,0.78-0.48,1.19-0.27c0.65,0.27,0.88,1,0.69,2.17c-0.15,0.77-0.56,1.47-1.16,1.98
		c-0.71,0.44-1.53,0.65-2.37,0.59h-4.69c-1.12,0.13-2.24-0.17-3.15-0.83c-0.65-0.94-0.95-2.08-0.82-3.22L144.79,47.35z"/>
	<path d="M161.96,36.99h16.55c0.78-0.04,1.44,0.55,1.49,1.32c0,0.06,0,0.12,0,0.19v16.92c0.06,0.76-0.51,1.42-1.27,1.48
		c-0.07,0.01-0.14,0.01-0.21,0h-16.55c-0.4,0.02-0.79-0.12-1.07-0.4c-0.28-0.29-0.42-0.68-0.41-1.09V38.5
		c-0.02-0.41,0.13-0.8,0.41-1.1C161.17,37.12,161.56,36.97,161.96,36.99z M176.8,39.32h-13.27c-0.26-0.05-0.52,0.13-0.56,0.4
		c-0.01,0.05-0.01,0.1,0,0.15v14.25c-0.04,0.27,0.15,0.52,0.43,0.56c0.05,0.01,0.09,0.01,0.14,0h13.27c0.36,0,0.54-0.18,0.54-0.56
		V39.8c0.01-0.26-0.19-0.48-0.46-0.49C176.86,39.31,176.83,39.31,176.8,39.32z M175.92,45.9H164.5c-0.36,0.05-0.7-0.21-0.74-0.58
		c-0.01-0.06-0.01-0.12,0-0.18c-0.05-0.36,0.19-0.69,0.55-0.74c0.06-0.01,0.13-0.01,0.19,0h4.48v-0.7h-1.87
		c-0.4,0.02-0.8-0.13-1.09-0.41c-0.29-0.28-0.44-0.67-0.42-1.07v-0.68c-0.02-0.4,0.14-0.79,0.42-1.07c0.29-0.28,0.68-0.43,1.09-0.41
		h6.09c0.41-0.01,0.8,0.13,1.1,0.41c0.28,0.29,0.43,0.68,0.41,1.07v0.68c0.02,0.4-0.13,0.79-0.41,1.07
		c-0.29,0.28-0.69,0.43-1.1,0.41h-1.96v0.7h4.68c0.36-0.05,0.69,0.19,0.74,0.55c0.01,0.06,0.01,0.13,0,0.19
		c0.02,0.37-0.27,0.68-0.63,0.69c-0.04,0-0.07,0-0.11,0V45.9z M174.02,53.97h-7.67c-0.4,0.02-0.8-0.12-1.1-0.4
		c-0.28-0.29-0.43-0.68-0.41-1.09V48c-0.01-0.4,0.13-0.79,0.41-1.09c0.29-0.29,0.69-0.44,1.1-0.42h7.67
		c0.41-0.02,0.8,0.14,1.09,0.42c0.28,0.29,0.42,0.68,0.41,1.09v4.42c0.02,0.4-0.13,0.8-0.41,1.09c-0.29,0.27-0.69,0.42-1.09,0.4
		V53.97z M172.74,48.07h-5.32c-0.36,0-0.54,0.19-0.54,0.56v3.22c0,0.37,0.18,0.56,0.54,0.56h5.36c0.36,0,0.54-0.19,0.54-0.56v-3.29
		c0-0.37-0.18-0.56-0.54-0.56L172.74,48.07z M171.99,41.44h-3.84c-0.22-0.04-0.43,0.11-0.47,0.34c-0.01,0.04-0.01,0.08,0,0.12v-0.03
		c0,0.26,0.14,0.38,0.41,0.38h3.84c0.22,0.02,0.43-0.14,0.45-0.37c0-0.03,0-0.06,0-0.1v-0.05c0.02-0.18-0.11-0.35-0.29-0.37
		c-0.02,0-0.04,0-0.05,0L171.99,41.44z M170.9,51.8h-1.56c-0.74,0.1-1.42-0.42-1.52-1.16c-0.02-0.15-0.02-0.3,0.01-0.45
		c-0.14-0.69,0.3-1.37,1-1.51c0.17-0.03,0.34-0.03,0.51,0h1.6c0.69-0.13,1.36,0.32,1.5,1.01c0.03,0.16,0.03,0.33,0,0.5
		c0.12,0.73-0.38,1.42-1.11,1.54c-0.13,0.02-0.26,0.02-0.39,0.01L170.9,51.8z M170.55,49.91h-1.01c-0.17-0.02-0.32,0.11-0.33,0.28
		c0,0.02,0,0.05,0,0.07v0.09c0,0.2,0.09,0.31,0.29,0.31h1.01c0.19,0.02,0.36-0.11,0.38-0.3c0-0.03,0-0.05,0-0.08l0,0
		c0.01-0.32-0.09-0.42-0.31-0.42L170.55,49.91z"/>
</g>
</svg>
