<svg id="圖層_1" data-name="圖層 1" xmlns="http://www.w3.org/2000/svg" viewBox="0 0 74 42"><title>logoTitle</title><path d="M13.69,8.66Q8,9,1.61,9.19A.89.89,0,0,1,.88,9a1.41,1.41,0,0,1-.23-.8Q.59,7,1.61,7L3.32,7A33.8,33.8,0,0,0,5.5,2.93a1.25,1.25,0,0,1,.59-.73,1.36,1.36,0,0,1,1,0c.88.28,1.09.83.63,1.67C7,5.17,6.36,6.18,5.88,6.9c1.29,0,3.31-.13,6.05-.24-.09-.1-.24-.24-.43-.43l-.41-.4c-.58-.52-.55-1,.07-1.49a1,1,0,0,1,1.39,0,24.2,24.2,0,0,1,3.62,3.76,1,1,0,0,1,.19.75,1.44,1.44,0,0,1-.53.64,1,1,0,0,1-1.65-.24C14.12,9.19,14,9,13.69,8.66ZM3.63,10.88h9.53a1.16,1.16,0,0,1,.85.31,1.11,1.11,0,0,1,.33.85V16.9a1.11,1.11,0,0,1-.33.85,1.16,1.16,0,0,1-.85.31H3.63a1.17,1.17,0,0,1-.85-.31,1.11,1.11,0,0,1-.32-.85V12a1.11,1.11,0,0,1,.32-.85A1.17,1.17,0,0,1,3.63,10.88ZM5.08,16h7V12.9h-7a.38.38,0,0,0-.44.44v2.25C4.64,15.87,4.78,16,5.08,16Z"/><path d="M20.26,7.29a14,14,0,0,1,1.26.77.93.93,0,0,1,.4.6,1.09,1.09,0,0,1-.28.69,1.28,1.28,0,0,1-.69.52,1,1,0,0,1-.78-.3A5.54,5.54,0,0,0,19.32,9a.84.84,0,0,1-.26-1.41A.86.86,0,0,1,20.26,7.29Zm-1.08,9.42c.72-1.77,1.21-3.05,1.48-3.85S21.35,12,22,12.4a.94.94,0,0,1,.44,1.18c-.4,1.31-.85,2.64-1.37,4-.27.69-.74.85-1.4.46A.94.94,0,0,1,19.18,16.71ZM20.45,4.85c-.25-.2-.52-.41-.83-.62a.81.81,0,0,1-.17-1.37.88.88,0,0,1,1.25-.23c.17.11.58.39,1.23.86a.94.94,0,0,1,.36.59,1.05,1.05,0,0,1-.29.64A.93.93,0,0,1,20.45,4.85Zm10.14.05H27a.6.6,0,0,1-.43-.17.57.57,0,0,1-.16-.43v0c-.61.82-1.16,1.5-1.64,2l.77,0a.08.08,0,0,0,0,0c-.09-.27,0-.46.31-.58a.42.42,0,0,1,.6.23,9.72,9.72,0,0,1,.39,1.32c0,.22-.09.4-.41.53s-.48,0-.54-.27v0l-.56.05V10.4a.67.67,0,1,1-1.34,0V8.59a9.37,9.37,0,0,1-.88,2.3h0a1.27,1.27,0,0,1-.68-1.73,1.18,1.18,0,0,1,1.54-.88h0v-.7l-.51,0-.51,0a.6.6,0,0,1-.67-.6c0-.42.16-.64.62-.67h.38a7.8,7.8,0,0,0,.51-.64,10.77,10.77,0,0,0-1-.93.69.69,0,0,1-.19-.49,1.14,1.14,0,0,1,.17-.55c.15-.23.31-.3.47-.19h0c.14-.24.32-.59.54-1.07a.56.56,0,0,1,.87-.3c.38.2.45.5.21.91L24.18,4.3a.75.75,0,0,0,.18.18,1,1,0,0,1,.18.17c.22-.3.37-.53.46-.67a.56.56,0,0,1,.86-.19l.5.28V3.86c0-.06,0-.09.08-.09h3.94a.23.23,0,0,1,.25.25v.05l.31-.44a.22.22,0,0,1,.37,0c.24-.42.42-.79.57-1.1s.45-.46.86-.27.47.49.21.92-.52.83-.79,1.19a2.76,2.76,0,0,1,.38.39l.57-.83c.19-.35.49-.42.89-.21s.46.53.16.91c-.52.64-1,1.2-1.44,1.69l1,0h0v0c-.17-.34-.06-.58.31-.74a.46.46,0,0,1,.67.25A9,9,0,0,1,35.14,7c.07.3-.08.53-.47.68s-.52.09-.56-.17v0l-.71.06V10.4a.59.59,0,0,1-.66.67.6.6,0,0,1-.69-.67V8.59a13.31,13.31,0,0,1-.42,1.35.83.83,0,0,1-.53.51,1,1,0,0,1-.77-.12l0,0h0v.35a.22.22,0,0,1-.25.25H28.22a1.19,1.19,0,0,1-1.35-1.35A1.2,1.2,0,0,1,28.22,8.2h1.07a.94.94,0,0,1,.72.27.93.93,0,0,1,.27.7V10a10.44,10.44,0,0,0,.38-1,1,1,0,0,1,.42-.63,1,1,0,0,1,.76-.11l.21,0V7.61l-.9,0a.58.58,0,0,1-.68-.6.55.55,0,0,1,.61-.67h.16a5.92,5.92,0,0,1,.44-.54,6.18,6.18,0,0,0-1.05-1.16v.16S30.62,4.9,30.59,4.9Zm-6.5,6.47h8.33a1.16,1.16,0,0,1,.85.32,1.15,1.15,0,0,1,.33.85v.66a1.11,1.11,0,0,1-.33.84,1.16,1.16,0,0,1-.85.32H25.71l-.15.56h7.63c.86,0,1.16.61.9,1.84a3.19,3.19,0,0,1-.82,1.57,2.84,2.84,0,0,1-1.66.46H29.84A1.1,1.1,0,0,1,28.66,18a.17.17,0,0,0,0-.05c-.12-.24-.13-.41,0-.52a.73.73,0,0,1,.61-.13c.76,0,1.35,0,1.78,0a1.39,1.39,0,0,0,.68-.12,1.07,1.07,0,0,0,.37-.46c.07-.2.09-.33,0-.4s-.13-.09-.27-.09H25.23s0,0,0,0a.55.55,0,0,1-.29.33.81.81,0,0,1-.46.08,1.46,1.46,0,0,1-.87-.36.67.67,0,0,1-.13-.77c.21-.77.33-1.25.36-1.42a1.16,1.16,0,0,1,.43-.72,1.3,1.3,0,0,1,.82-.27h6.28c.19,0,.28-.1.28-.3v-.05a.19.19,0,0,0-.21-.21H24.09c-.39,0-.58-.2-.58-.62A.52.52,0,0,1,24.09,11.37Zm1.56-1.66a4.83,4.83,0,0,0-.21-.91c-.09-.34,0-.54.41-.61a.45.45,0,0,1,.61.33c.12.43.21.77.26,1s-.06.49-.4.58S25.7,10.08,25.65,9.71Zm1.73-4.35h2.4a.44.44,0,0,1,.5.49c0,.31-.17.47-.5.47h-2.4c-.33,0-.5-.16-.5-.47A.44.44,0,0,1,27.38,5.36Zm2.4,2.35h-2.4c-.33,0-.5-.16-.5-.47a.44.44,0,0,1,.5-.5h2.4a.44.44,0,0,1,.5.5C30.28,7.55,30.11,7.71,29.78,7.71ZM27.52,2.3h2.09c.33,0,.49.17.49.51s-.16.51-.49.51H27.52A.45.45,0,0,1,27,2.81.45.45,0,0,1,27.52,2.3Zm.91,7.64h.4c.11,0,.16,0,.16-.15V9.5a.31.31,0,0,0-.35-.35h-.16c-.26,0-.38.14-.38.41v0A.29.29,0,0,0,28.43,9.94Zm5.47-.4c-.13-.4-.21-.62-.23-.67A.48.48,0,0,1,34,8.15a.51.51,0,0,1,.7.32c.19.55.33,1,.44,1.35a.47.47,0,0,1-.37.63c-.39.14-.63,0-.74-.4A3.27,3.27,0,0,0,33.9,9.54Z"/><path d="M39.58,2.79H52.31a.86.86,0,0,1,1,1,.86.86,0,0,1-1,1h-4.6l.17,0c.06,0,.08,0,.07.07L47.58,6H50.8A1.13,1.13,0,0,1,52,7.15v4.41a1.13,1.13,0,0,1-1.18,1.18h-3v4a2.85,2.85,0,0,1-.19,1.17,1.18,1.18,0,0,1-.67.62,5,5,0,0,1-1.74.29c-.74,0-1.19-.24-1.36-.78s-.07-.66.14-.82A1.61,1.61,0,0,1,45,17h.39c.24,0,.35-.09.35-.28V12.74H42.85a1.15,1.15,0,0,1-.85-.33,1.16,1.16,0,0,1-.32-.85V7.15A1.16,1.16,0,0,1,42,6.3,1.15,1.15,0,0,1,42.85,6h2.38c.09-.59.14-1,.16-1.25H40.94c-.28,0-.42.15-.42.44v3a27.31,27.31,0,0,1-1.34,9.58,1.26,1.26,0,0,1-.59.7,1.1,1.1,0,0,1-.87-.18,1.08,1.08,0,0,1-.44-1.56,24.73,24.73,0,0,0,1.14-8.54V4a1.14,1.14,0,0,1,.32-.84A1.1,1.1,0,0,1,39.58,2.79Zm3.68,13.39a13.14,13.14,0,0,1-1.2,1.25,1,1,0,0,1-1.39.07c-.37-.29-.55-.56-.53-.8s.22-.5.61-.8a10.82,10.82,0,0,0,1.56-1.79,1.07,1.07,0,0,1,1.35-.55c.79.22,1,.67.55,1.36A14.67,14.67,0,0,1,43.26,16.18Zm6.1-8.61H44.19a.39.39,0,0,0-.44.44v.58h6V8A.39.39,0,0,0,49.36,7.57Zm.44,2.51h-6v.62a.39.39,0,0,0,.44.44h5.17a.39.39,0,0,0,.44-.44Zm1.49,7A18,18,0,0,0,49.48,15c-.53-.5-.47-.95.16-1.36a1,1,0,0,1,1.23.09A24.41,24.41,0,0,1,53.07,16a.88.88,0,0,1,.22.7,1.25,1.25,0,0,1-.54.56,1.18,1.18,0,0,1-.8.27A1,1,0,0,1,51.29,17.08Z"/><path d="M70.74,18.29H56.82a.92.92,0,0,1-1-1,.93.93,0,0,1,1-1.06h5.85V12.58H58.84a.92.92,0,0,1-1-1.05.9.9,0,0,1,1-1h3.83V7.34H59a16.81,16.81,0,0,1-1,1.74,1.15,1.15,0,0,1-.69.52,1.19,1.19,0,0,1-.83-.25,1.27,1.27,0,0,1-.62-.74,1.17,1.17,0,0,1,.36-.88,16.16,16.16,0,0,0,2.08-4.4,1,1,0,0,1,1.38-.87.93.93,0,0,1,.79,1.37l-.5,1.42h2.75V3.11a1.11,1.11,0,0,1,2.22,0V5.25h5a.93.93,0,0,1,1.05,1,.93.93,0,0,1-1.05,1h-5v3.17h4.29a.91.91,0,0,1,1,1,.93.93,0,0,1-1,1.05H64.89V16.2h5.85a.93.93,0,0,1,1.06,1.06A.92.92,0,0,1,70.74,18.29Z"/><path d="M9.49,27.68h5.92c.65,0,1,.31,1,.94a.85.85,0,0,1-1,1h-3.9a16.85,16.85,0,0,0,4,2.37c.9.34,1.08.86.53,1.55a1.06,1.06,0,0,1-1.39.3l-.6-.28v5.15a1.14,1.14,0,0,1-.32.84,1.18,1.18,0,0,1-.85.32H4.18a1.18,1.18,0,0,1-.85-.32A1.13,1.13,0,0,1,3,38.68V33.55l-.79.4A1.16,1.16,0,0,1,.8,33.62c-.56-.71-.38-1.22.55-1.55a14.72,14.72,0,0,0,4-2.48H1.42a.85.85,0,0,1-1-1c0-.63.32-.94,1-.94H7.31V26.41c-1.33.12-2.65.21-4,.26a1,1,0,0,1-1.07-.77c-.17-.69.13-1,.92-1.09a58.83,58.83,0,0,0,9.19-1,1,1,0,0,1,.62,0,1.5,1.5,0,0,1,.51.44c.65.74.53,1.21-.37,1.41-1.27.23-2.48.42-3.64.56Zm-5.84,5.5h9.81a18,18,0,0,1-4-3.08v1.57a1,1,0,0,1-1.09,1.1,1,1,0,0,1-1.09-1.1V30.08A15.19,15.19,0,0,1,3.65,33.18Zm1.5,2.6h6.71v-1H5.15Zm6.71,1.46H5.15v.56a.37.37,0,0,0,.42.42h5.85c.29,0,.44-.14.44-.42Z"/><path d="M21.35,39.38V34a28.8,28.8,0,0,1-1.27,3.08c-.29.49-.54.73-.76.71s-.43-.29-.66-.82a1.5,1.5,0,0,1-.15-.72,1.38,1.38,0,0,1,.27-.66,17.81,17.81,0,0,0,1.9-4.05h-1a.87.87,0,0,1-1-1,.86.86,0,0,1,1-1h1.71V24.63a.85.85,0,0,1,1-1,.86.86,0,0,1,1,1v4.93H25a.87.87,0,0,1,1,1,.88.88,0,0,1-1,1H23.3v.13c.37.37,1.1,1.21,2.18,2.53a.93.93,0,0,1,.21.58,1.63,1.63,0,0,1-.32.58c-.28.35-.52.52-.73.52s-.41-.21-.62-.59L23.3,34v5.34a.86.86,0,0,1-1,1A.86.86,0,0,1,21.35,39.38Zm-1-14.06a20.66,20.66,0,0,1,.61,2.83.72.72,0,0,1-.61.83c-.6.16-.92,0-1-.58a20.35,20.35,0,0,0-.51-2.57.69.69,0,0,1,.56-1A.66.66,0,0,1,20.33,25.32Zm5.66.55c-.24.78-.55,1.71-.94,2.79-.14.34-.42.45-.86.33s-.64-.39-.51-.79c.21-.74.43-1.65.64-2.74a.75.75,0,0,1,1.05-.68C26,24.9,26.16,25.27,26,25.87Zm5.2,8V24.56a1,1,0,0,1,2,0v8.92l.82-.16a1,1,0,0,1,.36,2l-1.18.23V39.4a1,1,0,0,1-2,0V35.88l-4,.73A.89.89,0,0,1,26,35.76a.91.91,0,0,1,.83-1.16Zm-3-1.83-1.31-1a.93.93,0,0,1,.94-1.61,12.32,12.32,0,0,1,1.71,1.16.77.77,0,0,1,.32.57,1.07,1.07,0,0,1-.22.64Q29,32.78,28.18,32Zm.71-4.46a14.76,14.76,0,0,0-1.29-1,.79.79,0,0,1-.17-1.25A.76.76,0,0,1,28.61,25a19.92,19.92,0,0,1,1.67,1.23.9.9,0,0,1,.27.55,1.39,1.39,0,0,1-.24.59C29.87,28,29.39,28.07,28.89,27.54Z"/><path d="M39.11,34.83V29.77H38a1,1,0,0,1,0-2h1.07V24.81a1,1,0,0,1,2,0v2.92h.79a1,1,0,1,1,0,2h-.79V34l.28-.12.39-.16c.65-.28,1.07-.07,1.25.63a1,1,0,0,1-.57,1.22c-.28.14-1.54.75-3.79,1.82-.67.32-1.15.11-1.43-.63a1,1,0,0,1,.58-1.44Zm4.78-2.55a.9.9,0,0,1-1.37-.53.93.93,0,0,1,.56-1.35l.81-.35V26.32a1,1,0,0,1,2,0v2.85l1.48-.63v-4a1,1,0,0,1,2,0v3.12l1.4-.62.39-.25.23-.15a.36.36,0,0,1,.3,0l1,.35a.32.32,0,0,1,.21.48c0,3.51,0,5.62-.12,6.31a1.55,1.55,0,0,1-.91,1.49,2.72,2.72,0,0,1-1,.23,1,1,0,0,1-1.08-.9.8.8,0,0,1,.06-.63.6.6,0,0,1,.56-.21h0a.36.36,0,0,0,.24-.08.53.53,0,0,0,.14-.31c0-.28.06-1.67.06-4.16l-1.53.68v5.36a1,1,0,1,1-2,0v-4.5l-1.48.65v5.54a1.58,1.58,0,0,0,.21,1,1.52,1.52,0,0,0,1,.22h3.45a1,1,0,0,0,.93-.38,2.56,2.56,0,0,1,.53-1.2.74.74,0,0,1,.93-.21c.51.21.69.78.54,1.7a2.74,2.74,0,0,1-.91,1.55,3.06,3.06,0,0,1-1.85.46H47a3.51,3.51,0,0,1-2.46-.65,3.69,3.69,0,0,1-.64-2.52Z"/><path d="M57.31,24.18H70.25a1.1,1.1,0,0,1,1.16,1.18V38.59a1.08,1.08,0,0,1-1.16,1.16H57.31a1.13,1.13,0,0,1-.84-.31,1.18,1.18,0,0,1-.32-.85V25.36a1.19,1.19,0,0,1,.32-.86A1.14,1.14,0,0,1,57.31,24.18ZM68.92,26H58.54a.38.38,0,0,0-.44.43V37.57a.39.39,0,0,0,.44.44H68.92c.28,0,.42-.14.42-.44V26.38A.37.37,0,0,0,68.92,26Zm-.69,5.15H59.3a.52.52,0,0,1-.58-.59.51.51,0,0,1,.58-.58h3.5v-.55H61.34a1.12,1.12,0,0,1-.85-.32,1.11,1.11,0,0,1-.33-.84v-.53a1.11,1.11,0,0,1,.33-.84,1.16,1.16,0,0,1,.85-.32H66.1a1.2,1.2,0,0,1,.86.32,1.14,1.14,0,0,1,.32.84v.53a1.14,1.14,0,0,1-.32.84,1.16,1.16,0,0,1-.86.32H64.57v.55h3.66a.51.51,0,0,1,.58.58A.52.52,0,0,1,68.23,31.1Zm-1.49,6.31h-6a1.18,1.18,0,0,1-.86-.31,1.15,1.15,0,0,1-.32-.85V32.79a1.18,1.18,0,0,1,.32-.85,1.15,1.15,0,0,1,.86-.33h6a1.15,1.15,0,0,1,.85.33,1.18,1.18,0,0,1,.32.85v3.46a1.15,1.15,0,0,1-.32.85A1.17,1.17,0,0,1,66.74,37.41Zm-1-4.62H61.58c-.28,0-.42.15-.42.44V35.8c0,.29.14.44.42.44h4.19c.28,0,.42-.15.42-.44V33.23C66.19,32.94,66.05,32.79,65.77,32.79Zm-.58-5.18h-3a.32.32,0,0,0-.37.36V28c0,.2.11.3.32.3h3a.32.32,0,0,0,.35-.36V27.9A.26.26,0,0,0,65.19,27.61Zm-.86,8.1H63.08A1.06,1.06,0,0,1,61.9,34.5a1,1,0,0,1,1.18-1.18h1.25A1,1,0,0,1,65.5,34.5,1.05,1.05,0,0,1,64.33,35.71Zm-.27-1.48h-.79a.24.24,0,0,0-.26.27v.07c0,.16.07.24.23.24H64a.27.27,0,0,0,.3-.3v0C64.31,34.31,64.23,34.23,64.06,34.23Z"/></svg>