<svg id="圖層_1" data-name="圖層 1" xmlns="http://www.w3.org/2000/svg" viewBox="0 0 78 78"><title>logoPic</title><path d="M12.5,50c2-11,10-21.94,16.51-31.68,2.24-3.32,4.76-6.65,8.3-8.52s8.45-1.94,11.17,1c2,2.2,1.81,2.91,2.59,4.45,6.43,12.75,9,21,13.54,31.45a2.08,2.08,0,0,1-1.41,2.83c-16.7,4-34.83,6.74-50.7.47"/><path d="M14,50.4C15.87,40.2,22,31.31,27.73,22.88,30.4,18.94,32.94,14.33,37,11.7c3.44-2.21,8.21-2.6,11,.84a24.49,24.49,0,0,1,2.31,4.57q1.77,3.54,3.39,7.14c1.84,4.09,3.52,8.25,5.18,12.42.82,2,1.64,4.11,2.48,6.15.41,1,.82,2,1.25,3,.27.63,1.08,1.73.29,2.22a7.62,7.62,0,0,1-1.84.45l-1.74.4c-1.32.3-2.63.59-3.95.86-2.65.54-5.31,1-8,1.41-11.53,1.7-23.52,1.66-34.5-2.62-1.8-.7-2.58,2.2-.8,2.9,10.78,4.2,22.57,4.4,33.91,2.92a163.67,163.67,0,0,0,16.72-3.18,4.35,4.35,0,0,0,3-1.74,3.65,3.65,0,0,0,.34-3.15c-.76-2.27-1.88-4.47-2.77-6.69-3.69-9.18-7.42-18.33-11.8-27.2-2.13-4.32-6.71-6-11.28-5.19-5.08.93-8.73,5-11.57,9C25,21.4,21.4,26.69,18.2,32.15s-6,11.23-7.15,17.45c-.35,1.89,2.54,2.7,2.9.8Z"/><path d="M.56,52c-.51-.65.27-1.39,1-1.78a1.9,1.9,0,0,1,2.24.49A2.64,2.64,0,0,1,4.28,53a1.58,1.58,0,0,1-.54.91,1.42,1.42,0,0,1-1.66-.12A7.5,7.5,0,0,1,.56,52"/><path d="M9.12,54.54c.84-.66,1.79.34,2.3,1.28a2.46,2.46,0,0,1-.64,2.9,3.39,3.39,0,0,1-3,.61,2,2,0,0,1-1.18-.69,1.86,1.86,0,0,1,.16-2.15,10,10,0,0,1,2.38-2"/><path d="M74.81,48.8c.42,1.94-1.76,3.19-3.22,3.88A59.53,59.53,0,0,1,66,54.91a94,94,0,0,1-11.08,3.16,95.57,95.57,0,0,1-23.43,2.16A93.62,93.62,0,0,1,18,58.84c-1.41-.25-2,1.92-.6,2.17a97.08,97.08,0,0,0,51.25-4.69C72.1,55,78,53.05,77,48.2c-.31-1.41-2.48-.81-2.17.6Z"/><path d="M9.94,64.7c6.84,4.39,14.94,4.9,22.84,5a98.31,98.31,0,0,0,12.73-.27,83.88,83.88,0,0,0,12.56-2.42A116.24,116.24,0,0,0,71.3,62.58c1.33-.53.75-2.7-.6-2.16A101.91,101.91,0,0,1,47.47,67a77.61,77.61,0,0,1-12.38.56A114,114,0,0,1,23.55,67a29.38,29.38,0,0,1-12.47-4.23C9.85,62,8.72,63.92,9.94,64.7Z"/></svg>